<?xml version="1.0" standalone="no"?><!DOCTYPE svg PUBLIC "-//W3C//DTD SVG 1.1//EN" "http://www.w3.org/Graphics/SVG/1.1/DTD/svg11.dtd"><svg t="1510031492504" class="icon" style="" viewBox="0 0 1184 1024" version="1.1" xmlns="http://www.w3.org/2000/svg" p-id="4129" xmlns:xlink="http://www.w3.org/1999/xlink" width="231.25" height="200"><defs><style type="text/css"></style></defs><path d="M1056 193.728l-292 0 0 70.848 292 0 0-70.848zM912 437.152q-51.424 0-83.424 30.016t-35.424 81.44l233.152 0q-10.272-111.424-114.272-111.424zM921.152 771.424q36 0 69.728-18.272t43.424-49.728l126.272 0q-57.152 175.424-244 175.424-122.272 0-194.56-75.424t-72.288-198.272q0-118.848 74.56-197.44t192.288-78.56q78.848 0 137.44 38.848t87.424 102.272 28.864 141.728q0 9.728-1.152 26.848l-376 0q0 63.424 32.864 98.016t95.136 34.56zM158.272 742.848l169.152 0q117.152 0 117.152-95.424 0-102.848-113.728-102.848l-172.576 0 0 198.272zM158.272 436l160.576 0q44.576 0 70.56-20.864t26.016-64.864q0-82.272-108.576-82.272l-148.576 0 0 168zM0 145.152l339.424 0q49.728 0 88.576 8t72.288 27.136 51.424 55.136 18.016 88q0 103.424-98.272 150.272 65.152 18.272 98.272 65.728t33.152 116.576q0 42.848-14.016 78.016t-37.728 59.136-56.288 40.576-69.152 24-76.576 7.424l-349.152 0 0-720z" p-id="4130" fill="#515151"></path></svg>