<?xml version="1.0" standalone="no"?><!DOCTYPE svg PUBLIC "-//W3C//DTD SVG 1.1//EN" "http://www.w3.org/Graphics/SVG/1.1/DTD/svg11.dtd"><svg t="1510031419890" class="icon" style="" viewBox="0 0 1024 1024" version="1.1" xmlns="http://www.w3.org/2000/svg" p-id="1915" xmlns:xlink="http://www.w3.org/1999/xlink" width="200" height="200"><defs><style type="text/css"></style></defs><path d="M720.989 21.614h-421.236c-155.828 0-282.148 126.321-282.148 282.148v421.235c0 155.828 126.321 282.148 282.148 282.148h421.235c155.828 0 282.148-126.321 282.148-282.148v-421.234c0.001-155.828-126.321-282.149-282.147-282.149zM511.934 766.764c-140.701 0-254.764-114.063-254.764-254.761 0-140.702 114.062-254.764 254.764-254.764 140.7 0 254.761 114.061 254.761 254.764 0 140.699-114.062 254.761-254.761 254.761zM773.321 308.395c-32.917 0-59.602-26.685-59.602-59.602s26.687-59.602 59.602-59.602 59.602 26.685 59.602 59.602-26.685 59.602-59.602 59.602zM511.934 348.643c-90.219 0-163.357 73.137-163.357 163.357 0 90.218 73.137 163.356 163.357 163.356 90.218 0 163.356-73.137 163.356-163.356 0-90.219-73.135-163.357-163.356-163.357z" p-id="1916" fill="#515151"></path></svg>