<?xml version="1.0" standalone="no"?><!DOCTYPE svg PUBLIC "-//W3C//DTD SVG 1.1//EN" "http://www.w3.org/Graphics/SVG/1.1/DTD/svg11.dtd"><svg t="1510031450136" class="icon" style="" viewBox="0 0 1024 1024" version="1.1" xmlns="http://www.w3.org/2000/svg" p-id="2676" xmlns:xlink="http://www.w3.org/1999/xlink" width="200" height="200"><defs><style type="text/css"></style></defs><path d="M1008 103.296l0 817.392c0 23.872-8.608 44.304-25.776 61.536C965.008 999.44 944.464 1008 920.688 1008L103.296 1008c-23.792 0-44.352-8.56-61.504-25.776C24.624 964.992 16 944.56 16 920.688L16 103.296c0-23.792 8.624-44.304 25.792-61.52C58.96 24.576 79.504 16 103.296 16l817.392 0c23.824 0 44.336 8.608 61.536 25.776C999.392 59.008 1008 79.504 1008 103.296zM345.36 278.88c0-18.512-6.112-33.872-18.384-46.128-12.224-12.24-28.256-18.352-48.096-18.352-19.824 0-36.064 6.128-48.544 18.352-12.592 12.256-18.88 27.616-18.88 46.128s6.08 33.872 18.336 46.128c12.272 12.256 27.952 18.336 47.152 18.336 21.088 0 38-6.096 50.576-18.336C340.048 312.784 346.032 297.392 345.36 278.88zM214.368 809.616l127.024 0L341.392 393.952l-127.024 0L214.368 809.616zM678.672 809.616l127.92 0L806.592 564.592c0-58.864-13.536-103.52-40.592-133.92-27.088-30.4-62.544-45.632-106.224-45.632-31.04 0-57.36 6.944-78.848 20.832s-37.568 29.44-48.08 46.64l-2.016 0-5.92-58.544-110.112 0c1.936 75.424 2.96 119.712 2.96 132.944l0 282.704 126.96 0L544.72 570.528c0-13.84 1.344-24.816 3.968-32.752 13.248-32.384 35.04-48.592 65.456-48.592 43.008 0 64.528 30.112 64.528 90.272L678.672 809.616z" p-id="2677" fill="#515151"></path></svg>